inDegrees=yes
DataType=double
version=3
OpenSimVersion=4.5-2023-11-26-efcdfd3eb
endheader
time	pelvis_tilt	pelvis_list	pelvis_rotation	pelvis_tx	pelvis_ty	pelvis_tz	hip_flexion_l	hip_adduction_l	hip_rotation_l	hip_flexion_r	hip_adduction_r	hip_rotation_r	lumbar_ext	lumbar_bend	lumbar_rota	knee_angle_l_beta	knee_angle_r_beta	knee_angle_l	knee_angle_r	ankle_angle_l	ankle_angle_r
0.95	-1.803042972918288	5.899808716253673	-1.958356233165801	-0.01147246167963306	0.8187451501701198	-0.2014817461442206	30.55751569089451	7.45060880288329	-3.815739800963208	-4.949559739562674	-4.474649523828607	-10.52316687524834	-6.892315226973577	-8.895967586399086	5.054517205493934	0.2613899170001892	0.5280862631078418	-14.97653905138573	-30.25711409491448	-8.217843411592169	10.43578527136753
0.9604999999999999	-1.959333419875378	5.900643117359452	-1.869586039155544	0.0004363635798547696	0.8175935956468422	-0.2026206914214536	30.37051882915176	7.492298079029334	-3.826570429228001	-5.031775811181398	-4.57282898014985	-10.53120266858502	-6.971949109394291	-8.947286704091685	5.126056964906776	0.2624341075060905	0.5327186229367162	-15.0363667603815	-30.52252876229493	-8.223276085958725	10.27081315766767
0.971	-2.079935886436411	5.89735400855445	-1.761588108182988	0.01308655208912291	0.8169015844639612	-0.2040356372021183	30.05234984443301	7.576300483634948	-3.817391424142681	-5.153824231155321	-4.698178154046609	-10.50702712726404	-6.933942240712848	-8.945412974736984	5.232246137990877	0.2647784792675741	0.5449633535902599	-15.17068936792416	-31.22410015001745	-8.194412197563624	9.89246398860589
0.9814999999999999	-2.17574922637134	5.893698584422838	-1.611670600674622	0.02621002165830414	0.8167363764392884	-0.2058945939036939	29.59985463168049	7.743070916788832	-3.767191083191602	-5.183468004577703	-4.871296282374558	-10.40871822196937	-6.826727822976058	-8.858994842079071	5.319719825902845	0.2682812598379107	0.5639149395392843	-15.37138391116488	-32.30994603997598	-8.121850882435851	9.38154740214082
0.992	-2.241836536298194	5.879352930907136	-1.429761989430488	0.03969546123970701	0.8170376010641106	-0.2081027031065794	29.02454171681226	7.96746952905032	-3.665270641849216	-5.127239759814242	-5.071463217047102	-10.25031345670883	-6.68007973443291	-8.695069916002442	5.396721709032175	0.272450526142812	0.5888522846520312	-15.61026527410183	-33.73875066719757	-7.996985354337244	8.581422192852756
1.0025	-2.276627235026914	5.854853148135123	-1.221577436857401	0.0534241973724476	0.8177322161503557	-0.2105220862744078	28.35291886286228	8.234622271490712	-3.503453455644657	-4.988777527483375	-5.283779490977917	-10.08610622725985	-6.519346619976239	-8.484908139784098	5.467138161067956	0.2765586150522271	0.6193678859085455	-15.84564143047582	-35.48716582849995	-7.754639723300222	7.504569735056073
1.013	-2.27451543250818	5.828598290177647	-1.006275913158557	0.06717442616412039	0.8188049150834282	-0.2129942510027762	27.55875361503361	8.53601993293189	-3.333872925993003	-4.670902423302807	-5.500266646204683	-9.981136373124123	-6.391295029568204	-8.266077696235136	5.524431572602301	0.2801387044704479	0.6552806075298474	-16.05076544441931	-37.54481320822877	-7.46547234281637	6.551437390959084
1.0235	-2.234133286311499	5.801060387278964	-0.8049205297038787	0.08074424821561131	0.820224331561317	-0.2154043519375892	26.62742656467824	8.851962111995951	-3.187598994579547	-4.088052712740033	-5.711837995759219	-9.929996194728792	-6.332044550181931	-8.053814785202103	5.560336213369569	0.283236203272345	0.6958340294415287	-16.22823905281485	-39.86835312858146	-7.117256092427767	5.686606099986512
1.034	-2.175289711699116	5.750455936230649	-0.6062809016403684	0.09411527381237984	0.8218466017386242	-0.2178822820338565	25.63224222983626	9.152625324941681	-3.013490942821544	-3.318686136723976	-5.92356038535392	-9.781148356164849	-6.315569109971642	-7.786493372232717	5.539713982670072	0.285518719843147	0.7388944502750023	-16.35901761899047	-42.3355335063967	-6.651493188198732	4.479485830163629
1.0445	-2.118112982171197	5.66163302166675	-0.3826755974264191	0.1072771306343421	0.8235324444701865	-0.2205604630752468	24.64251978967303	9.420387273062525	-2.763701467908199	-2.443877138340463	-6.146206578449613	-9.482652567829696	-6.3147828063315	-7.41566507918122	5.418691196809169	0.2864073991235329	0.783669665106142	-16.40993519109731	-44.90096434301257	-6.159410715629108	3.281704497983066
1.055	-2.058518115263301	5.555892512990419	-0.1455942134846056	0.1200753927644178	0.8252590779645749	-0.2232346238402652	23.61430624925189	9.665406791031854	-2.447538287908289	-1.378001893435466	-6.361897514533157	-9.192097431281512	-6.357600747975265	-7.009699510985999	5.221811480536982	0.2858101858521175	0.8307974965101046	-16.375717391176	-47.60119018006373	-5.620878180308704	2.542807767405856
1.0655	-1.986708691608452	5.455773266330429	0.07319823592676339	0.1323727233458623	0.8270352047900025	-0.2256654049840246	22.49578887324948	9.894400789410666	-2.094806097370937	-0.04331811120036144	-6.540968321109615	-8.979051521282686	-6.474937957043807	-6.641522959924963	4.997112638788714	0.2837376521467964	0.8788255995570147	-16.2569699569625	-50.35299778267109	-5.000248088224301	1.729926009016141
1.076	-1.912994839115622	5.349326438549059	0.2829666229010727	0.1442261738577366	0.8288454017872988	-0.2279272185359103	21.34187919348242	10.09083712872359	-1.735227052817227	1.486132872641561	-6.67445553434634	-8.753698399980417	-6.640874843457753	-6.279060481602238	4.735308894565001	0.280192605185703	0.9262491720770646	-16.05385372791617	-53.07016833750254	-4.368012474547392	0.7949889250688815
1.0865	-1.847674261544839	5.218317519277289	0.5104461206218632	0.1557245308110695	0.8306796329794951	-0.2301564376162095	20.20728518519545	10.24026037338959	-1.37140888732188	3.119508364379917	-6.76718211683376	-8.476528677989554	-6.826419371355399	-5.873889404202565	4.406686559205796	0.2751624540001619	0.9725645965402876	-15.76564729467193	-55.72384668560218	-3.722568991386745	0.2033887389096442
1.097	-1.789972751524548	5.06939156640945	0.7397369771631661	0.166866348726264	0.8325670650673286	-0.2323095975034102	19.07048815936031	10.34761933930024	-0.9746896521579723	4.871615010833518	-6.829396682051631	-8.176972099398043	-7.035141435109862	-5.440815189049496	4.028347294851017	0.2686991187417129	1.016670533834701	-15.39532546278471	-58.25093074404074	-3.042098750943101	-0.1692244956461312
1.1075	-1.741424855804535	4.914132808650194	0.9401839273105012	0.1776385648836142	0.8345227613333503	-0.2342972997926482	17.9075065518883	10.41774177192832	-0.5309961323010419	6.778760180887141	-6.863355860713454	-7.864347126381512	-7.27006276105552	-5.007780264735122	3.63521021066133	0.2608156867866994	1.057492691590733	-14.94363808368387	-60.5898680940786	-2.366683551124811	-0.521468681334072
1.118	-1.704326073710884	4.754419959784549	1.118608276867785	0.1880923112941887	0.8365195989194605	-0.2361175671728801	16.73594860925865	10.45401491693838	-0.05975999506555023	8.793965775945377	-6.862869835597929	-7.543105888247997	-7.52287997859802	-4.581002831437924	3.231133517662601	0.2515810625659262	1.094271752712997	-14.41453309044428	-62.69715307083802	-1.715350058702599	-0.8045838044604471
1.1285	-1.679308669292217	4.590885422297314	1.29051831143382	0.1982929662538447	0.8385308731467718	-0.2377899729656691	15.57583216190738	10.4610690231219	0.419856982064557	10.85569943943074	-6.825634688489576	-7.225463184886328	-7.78441991840542	-4.16254067951634	2.81103593794866	0.2411289657564464	1.126349096603737	-13.81567205619893	-64.53504949376718	-1.064018474511344	-0.9409559009359488
1.139	-1.666795271849782	4.427708460820194	1.448705996624892	0.2083009564857204	0.8405382144259439	-0.2393001722826477	14.41729017274803	10.44290417958724	0.9081439952992787	12.94862857129296	-6.756428229357238	-6.91536388878289	-8.044462413815618	-3.760777856459709	2.385976536022884	0.2296305202513221	1.153136412878328	-13.15685965779414	-66.06984966078333	-0.4135066949467745	-0.9725215994924039
